<?xml version="1.0" encoding="utf-8"?>
<!-- Generator: Adobe Illustrator 24.1.2, SVG Export Plug-In . SVG Version: 6.00 Build 0)  -->
<svg version="1.1" id="Layer_1" xmlns="http://www.w3.org/2000/svg" xmlns:xlink="http://www.w3.org/1999/xlink" x="0px" y="0px"
	 viewBox="0 0 147 30" style="enable-background:new 0 0 147 30;" xml:space="preserve">
<style type="text/css">
	.st0{fill:#FFD913;}
</style>
<path class="st0" d="M142.3,6.2l-1.6,6.6l-0.1,0.5l-1.6,6.7c-0.2,1-1.1,1.6-2.1,1.6H135l2-8.2h-4.1l-2,8.2h-3.6l2-8.4l0.1-0.5
	l1.6-6.6h-4.1l-1.6,6.6l-0.1,0.5l-3,12.5h15.5c2.2,0,4.2-1.5,4.7-3.7l2.1-8.7l0.1-0.5l1.6-6.6L142.3,6.2L142.3,6.2z"/>
<path class="st0" d="M20.1,25.8h-7.5l-0.7-1.3h8h1.8l-4.7-8.3h-5.3H6.1H1.4l2.1,3.7H4h5.5h4l0.7,1.1H8.8H4.2l4.7,8.3h0.6h10.1h4.7
	l-2-3.5H20.1z"/>
<path class="st0" d="M15,10.3l1.1,1.9l7.8,13.7h5.5L15,0.7L6.9,14.9h5.5L15,10.3z"/>
<path class="st0" d="M0.6,25.8h4.8L3,21.6L0.6,25.8z"/>
<path class="st0" d="M60.7,6.3L57,21.6h-5.4l3.7-15.3h-4.1l-4.7,19.4H60l4.7-19.4H60.7z"/>
<path class="st0" d="M75.9,6.3l-1.7,6.8l-0.6,2.6l-0.9-2.6l-1.9-6.8h-4.3l-1.7,6.8l-3.1,12.6h1.7h2.3l2.8-11.4l3.4,11.4h3.3
	l3.1-12.6l1.7-6.8H75.9z"/>
<path class="st0" d="M83.9,13.1l0.7-3.1h9.4L95,6.2H81.5l-1.6,6.8h0l-1.2,5h9.4l-0.9,3.6h-9.4l-1,4.1h13.5l2.9-11.8h-9.4L83.9,13.1
	L83.9,13.1z"/>
<path class="st0" d="M112.2,6.2h-4.1l-1.8,7.1h0l-0.2,0.7h-7.4l0.2-0.9h0l1.7-6.8h-4.1L95,13.1h0l-3.1,12.7h4.1l1.9-7.7h7.4
	l-1.9,7.6h4.1l3.1-12.6h0L112.2,6.2z"/>
<path class="st0" d="M142.3,6.2l-1.6,6.6l-0.1,0.5l-1.6,6.7c-0.2,1-1.1,1.6-2.1,1.6H135l2-8.2h-4.1l-2,8.2h-3.6l2-8.4l0.1-0.5
	l1.6-6.6h-4.1l-1.6,6.6l-0.1,0.5l-3,12.5h15.5c2.2,0,4.2-1.5,4.7-3.7l2.1-8.7l0.1-0.5l1.6-6.6L142.3,6.2L142.3,6.2z"/>
<path class="st0" d="M117.7,14.3c1.2,0,2.2-1,2.2-2.2c0-1.2-1-2.2-2.2-2.2c-1.2,0-2.2,1-2.2,2.2C115.5,13.3,116.5,14.3,117.7,14.3z"
	/>
<path class="st0" d="M127.4,11.1h-1.7c-0.4-3.7-3.4-6.7-7.1-7.1V2.3h-1.9v1.7c-3.7,0.4-6.6,3.4-7.1,7.1h-1.7V13h1.7
	c0.4,3.7,3.4,6.7,7.1,7.2v1.7h1.9v-1.7c3.7-0.4,6.6-3.4,7.1-7.2h1.7V11.1z M118.7,18.2v-1.5h-1.9v1.5c-2.7-0.4-4.8-2.5-5.2-5.2h1.5
	v-1.9h-1.5c0.4-2.7,2.5-4.8,5.2-5.2v1.5h1.9V5.9c2.7,0.4,4.8,2.5,5.2,5.2h-1.5V13h1.5C123.4,15.7,121.3,17.8,118.7,18.2z"/>
<path class="st0" d="M49.6,6.3h-9.8c-2,0-4.1,1.7-4.6,3.7l-2.9,12.1c-0.5,2,0.7,3.6,2.7,3.6h9.9L47.7,14h-6.9l-0.9,3.7h2.9l-1,3.9
	h-4.1c-0.7,0-1.2-0.7-1-1.3l2.3-9.2c0.2-0.6,0.7-1.1,1.4-1.1h8.3L49.6,6.3z"/>
</svg>
